<svg width="67" height="26" viewBox="0 0 67 26" fill="none" xmlns="http://www.w3.org/2000/svg">
<path d="M0.75 19.5H7.975C10.9 19.5 13.075 19.075 14.625 18.175C17.175 16.75 18.475 13.9 18.475 9.85C18.475 6.125 17.3 3.675 14.825 2.175C13.35 1.25 11.125 0.8 8.275 0.8H0.75V1.45C2.75 1.475 3 1.75 3 4.05V16.25C3 18.55 2.775 18.8 0.75 18.85V19.5ZM6.25 18.775V1.525H7.75C10.4 1.525 12.3 2.3 13.375 3.85C14.45 5.4 14.975 7.475 14.975 10.275C14.975 13.35 14.3 15.7 13 17.05C11.975 18.15 10.175 18.775 8.025 18.775H6.25ZM33.0969 18.825C31.4969 18.8 31.3969 18.65 31.3969 15.9C31.3969 15.725 31.3969 15.25 31.4219 14.55L31.4469 12.375L31.4719 10.2C31.4719 8.65 31.1719 7.75 30.4969 7.1C29.7469 6.4 28.5219 6.075 26.7969 6.075C25.0969 6.075 23.7469 6.375 22.6969 7.025C21.7219 7.625 21.1469 8.475 21.1469 9.35C21.1469 10.1 21.7469 10.5 22.8969 10.5C23.9469 10.5 24.3719 10.175 24.4219 9.275C24.4969 8.325 24.5719 7.925 24.8219 7.5C25.1719 6.9 25.6969 6.65 26.4969 6.65C27.9969 6.65 28.4469 7.425 28.4469 10.075V11.7C26.8969 11.775 25.5719 11.95 24.3469 12.175C21.6719 12.7 20.3469 14.025 20.3469 16.175C20.3469 18.425 21.8219 19.85 24.1969 19.85C25.8219 19.85 27.1719 19.225 28.4719 17.825C28.5969 19.35 28.8469 19.725 29.6469 19.725C30.2969 19.725 31.6219 19.6 33.0969 19.425V18.825ZM28.4469 14.2C28.4469 15.625 28.3219 16.45 27.9969 17.1C27.5219 18.125 26.5719 18.75 25.5719 18.75C24.3469 18.75 23.5469 17.575 23.5469 15.8C23.5469 13.475 24.8219 12.55 28.4469 12.275V14.2ZM34.0768 6.45V7.05C35.8268 7.075 35.9518 7.25 35.9518 9.475V16.4C35.9518 18.625 35.7768 18.875 34.0018 18.9V19.5H40.9518V18.9C39.1768 18.875 39.0018 18.625 39.0018 16.4V10.975C39.0018 9.375 39.0518 7.625 39.1518 6.125L34.0768 6.45ZM35.7018 2.175C35.7018 3.175 36.5018 3.975 37.5018 3.975C38.5018 3.975 39.3018 3.175 39.3018 2.175C39.3018 1.175 38.5018 0.374999 37.5018 0.374999C36.5018 0.374999 35.7018 1.175 35.7018 2.175ZM42.402 19.675C43.227 19.525 43.302 19.525 43.677 19.525C43.977 19.525 44.277 19.55 44.577 19.6C46.052 19.85 46.402 19.9 47.127 19.9C49.952 19.9 51.627 18.325 51.627 15.725C51.627 13.85 50.802 12.875 48.252 11.7C46.002 10.675 46.002 10.675 45.452 10.25C44.902 9.825 44.677 9.375 44.677 8.725C44.677 7.475 45.552 6.65 46.902 6.65C48.702 6.65 49.752 8 49.927 10.55H50.852L51.077 6.175C50.502 6.375 50.227 6.425 49.877 6.425C49.602 6.425 49.477 6.4 48.777 6.275C48.052 6.15 47.402 6.075 47.002 6.075C44.177 6.075 42.377 7.625 42.377 10.05C42.377 10.95 42.652 11.675 43.252 12.3C43.852 12.95 44.477 13.35 45.952 14C48.852 15.35 49.502 15.9 49.502 17.125C49.502 18.5 48.577 19.3 47.052 19.3C45.827 19.3 44.952 18.8 44.252 17.725C43.852 17.075 43.652 16.4 43.502 15.1H42.602L42.402 19.675ZM60.8178 16.225L58.2428 9.475C57.9428 8.675 57.8678 8.4 57.8678 8.025C57.8678 7.35 58.2928 7.075 59.3678 7.05V6.45H52.6928V7.025C53.8678 7.125 54.0928 7.4 54.9428 9.4L59.3178 19.85L58.9428 20.85C58.4678 22 58.1178 22.325 57.3428 22.325C57.0928 22.325 56.8928 22.3 56.2928 22.175C55.7928 22.075 55.5178 22.05 55.2928 22.05C54.6428 22.05 54.2928 22.5 54.2928 23.35C54.2928 24.5 54.9178 25.075 56.1178 25.075C57.6678 25.075 58.5678 24.15 59.5928 21.575L63.8428 10.775C64.9678 7.95 65.5928 7.225 66.9928 7.025V6.45H61.5428V7.025C62.9428 7.1 63.5178 7.55 63.5178 8.575C63.5178 9.05 63.4178 9.5 63.0928 10.325L60.8178 16.225Z" fill="#4DBF52"/>
</svg>
